 <svg version="1.0" xmlns="http://www.w3.org/2000/svg"
 width="1280.000000pt" height="856.000000pt" viewBox="0 0 1280.000000 856.000000"
 preserveAspectRatio="xMidYMid meet"><g transform="translate(0.000000,856.000000) scale(0.100000,-0.100000)"
fill="#000000" stroke="none">
<path d="M5632 8549 c-28 -5 -76 -17 -105 -28 -130 -48 -177 -61 -250 -69 -64
-8 -85 -15 -115 -40 -21 -16 -57 -39 -80 -51 l-43 -22 -60 55 c-90 84 -127 89
-206 29 -42 -31 -43 -47 -2 -39 94 18 68 -86 -27 -113 -71 -19 -194 -145 -194
-198 0 -12 3 -23 7 -23 4 0 34 29 68 64 45 45 76 68 110 80 47 15 95 21 95 11
0 -11 -96 -153 -137 -204 -51 -63 -145 -219 -171 -283 -14 -36 -17 -79 -16
-258 0 -311 41 -597 104 -720 27 -52 91 -123 148 -162 l43 -29 -31 -35 c-23
-27 -30 -44 -30 -76 0 -39 5 -47 74 -113 81 -77 108 -115 80 -115 -9 0 -67 18
-129 40 -62 22 -207 67 -322 99 -190 54 -598 190 -666 222 -25 11 -28 17 -22
46 8 45 -11 78 -87 144 -112 99 -120 103 -194 103 -66 0 -67 -1 -103 -43 l-36
-43 -25 20 c-14 10 -76 47 -139 81 -63 34 -164 94 -224 133 -61 39 -118 73
-127 75 -13 3 -22 -6 -34 -36 -9 -23 -16 -46 -16 -52 0 -6 -15 -44 -34 -85
-36 -78 -53 -89 -87 -58 -24 22 -38 13 -183 -115 -66 -59 -175 -151 -241 -206
-66 -55 -179 -156 -252 -225 -74 -69 -193 -180 -265 -248 -162 -152 -282 -233
-480 -324 -84 -38 -170 -83 -193 -98 -49 -35 -135 -123 -203 -211 -28 -36
-125 -135 -214 -220 -90 -84 -242 -230 -338 -324 -131 -128 -183 -173 -207
-178 -82 -16 -97 -154 -23 -207 41 -29 121 -47 271 -59 327 -28 544 -55 829
-102 129 -21 238 -36 470 -63 74 -9 171 -23 215 -31 175 -32 280 -45 495 -65
124 -12 270 -27 324 -35 55 -8 119 -15 142 -15 23 0 87 -9 141 -19 54 -11 150
-24 213 -30 184 -18 286 -31 420 -51 69 -11 175 -24 235 -30 61 -7 200 -24
310 -40 110 -16 226 -31 258 -35 36 -4 57 -11 57 -19 0 -7 -14 -43 -30 -80
-48 -106 -63 -185 -57 -311 5 -127 32 -213 116 -369 39 -73 52 -107 60 -170 7
-49 11 -327 11 -770 l0 -692 26 -52 c29 -59 66 -84 126 -86 51 -1 75 25 87 94
5 30 14 82 20 115 6 33 19 165 30 292 11 128 24 240 29 248 7 14 12 13 35 -5
39 -31 52 -61 119 -268 80 -252 81 -272 28 -542 -45 -231 -56 -263 -124 -373
-70 -113 -100 -181 -93 -209 14 -54 124 -103 253 -113 80 -6 95 -5 130 13 105
54 309 224 338 281 7 14 27 74 44 132 17 58 56 163 87 232 54 122 75 200 75
281 0 32 -9 51 -44 95 -113 145 -134 207 -143 428 l-6 152 27 11 c41 15 522
26 539 12 11 -10 12 -28 1 -114 -17 -138 -37 -324 -85 -813 -22 -225 -55 -558
-74 -738 -20 -181 -33 -333 -29 -338 10 -16 31 9 38 44 3 18 17 158 31 312 28
305 66 654 120 1090 31 254 55 484 55 543 l0 22 193 0 c193 0 567 -14 686 -26
l64 -6 -7 -121 c-7 -139 -19 -210 -35 -215 -6 -2 -11 -10 -11 -17 0 -8 -23
-44 -51 -80 -28 -37 -57 -81 -64 -98 -18 -44 -34 -169 -37 -297 l-3 -105 33
-10 c17 -6 36 -15 41 -21 6 -5 17 -65 25 -134 27 -219 44 -261 146 -374 92
-100 184 -150 290 -158 l35 -3 12 -125 c13 -128 37 -298 55 -383 10 -49 40
-79 60 -59 13 13 -26 358 -54 479 -23 102 -20 117 31 128 55 12 89 41 96 83 9
56 -10 179 -44 281 -27 79 -30 101 -34 266 -3 99 -11 225 -17 280 -12 96 -11
107 18 265 17 91 33 186 37 211 7 56 50 182 64 187 12 4 19 -63 25 -243 5
-148 26 -293 51 -352 23 -53 91 -116 118 -107 49 14 51 23 58 232 4 108 8 382
8 608 1 404 1 411 22 430 34 31 48 67 64 171 8 54 19 113 25 132 5 19 21 97
35 175 21 120 84 355 116 434 13 34 11 70 -10 147 -36 134 -38 121 22 143 78
30 356 98 477 117 58 9 132 25 165 35 33 10 96 23 140 30 77 11 691 130 885
171 52 11 165 31 250 44 85 13 238 39 340 59 102 19 239 44 305 56 114 20 448
98 600 140 39 11 106 27 150 36 44 9 107 23 140 30 33 7 73 14 88 14 77 0 378
75 607 150 95 32 145 45 235 65 103 22 173 52 181 77 11 35 -7 156 -26 181
-11 14 -48 33 -92 47 -40 14 -111 44 -158 68 -47 24 -105 51 -130 59 -89 31
-307 145 -390 204 -121 88 -315 245 -381 309 -77 75 -142 179 -256 405 -52
104 -120 231 -150 282 -51 85 -113 235 -113 272 0 20 -100 158 -200 274 -41
48 -124 154 -185 235 -109 146 -110 147 -153 150 -23 2 -100 -8 -170 -23 -70
-14 -255 -44 -412 -66 -252 -36 -314 -42 -531 -46 l-247 -6 -30 -43 c-73 -103
-469 -374 -742 -507 -165 -81 -526 -234 -715 -305 l-70 -26 -85 41 c-242 117
-304 143 -341 143 -32 0 -41 5 -53 28 -8 15 -29 41 -46 57 -53 50 -54 58 -15
105 19 23 42 66 51 96 14 49 14 63 0 156 -9 57 -20 118 -25 137 -6 18 -13 79
-17 135 -7 105 -13 126 -47 164 -17 18 -31 22 -82 22 l-61 0 -42 85 c-23 47
-42 98 -42 114 0 41 -52 138 -108 201 -27 30 -60 73 -75 95 -44 69 -258 281
-322 320 -33 20 -91 45 -130 57 -38 11 -107 40 -152 65 -125 67 -266 88 -421
62z m223 -69 c16 -7 12 -9 -18 -9 -44 -1 -100 -27 -94 -44 2 -8 52 -17 133
-25 177 -17 276 -43 332 -87 25 -19 61 -38 81 -41 65 -12 141 -61 141 -91 0
-7 18 -33 40 -57 22 -24 40 -48 40 -54 0 -6 36 -50 80 -96 80 -85 140 -168
140 -193 0 -7 -11 -19 -25 -25 -14 -6 -25 -15 -25 -19 0 -4 36 -49 81 -99 69
-79 88 -110 69 -112 -3 0 -35 18 -71 41 -53 33 -72 52 -100 102 -45 81 -81
111 -178 148 -87 34 -131 39 -131 17 0 -18 19 -33 53 -41 15 -4 27 -14 27 -22
0 -24 -70 -46 -151 -47 -76 -1 -78 0 -215 69 -155 78 -183 106 -205 200 -23
101 -54 189 -71 199 -13 8 -22 7 -34 -6 -16 -16 -15 -23 9 -116 27 -99 39
-204 24 -218 -4 -4 -18 3 -32 16 -15 14 -30 20 -41 16 -14 -5 -15 -13 -8 -49
21 -101 5 -234 -41 -339 -5 -13 -3 -18 8 -18 31 0 93 90 137 198 24 59 50 115
58 125 15 17 17 16 46 -12 43 -40 179 -116 251 -140 53 -17 70 -18 140 -9 127
16 216 7 270 -28 206 -133 202 -130 261 -249 54 -110 68 -162 39 -152 -16 7
-29 -8 -20 -23 4 -7 14 -6 28 2 42 22 48 38 41 116 -5 66 -3 76 20 116 27 46
60 66 79 47 5 -5 12 -58 15 -117 5 -104 4 -106 -21 -130 -16 -15 -28 -39 -32
-66 -7 -45 7 -98 25 -98 19 0 30 46 17 79 -9 24 -8 34 1 43 18 18 42 -49 49
-141 6 -77 6 -77 -28 -116 l-34 -38 -7 -171 c-4 -100 -13 -196 -22 -231 -21
-78 -92 -218 -132 -259 -17 -18 -86 -61 -152 -95 -161 -83 -277 -161 -389
-260 l-92 -81 -88 0 c-147 0 -314 18 -383 41 -99 32 -276 120 -376 187 -92 62
-230 196 -259 252 -11 22 -14 44 -10 73 4 25 0 69 -9 107 -15 66 -36 297 -36
403 0 43 5 67 20 88 12 15 28 51 36 79 8 27 17 50 19 50 3 0 44 -22 92 -50 48
-27 88 -48 91 -46 2 2 -4 15 -12 28 -22 34 -11 39 37 17 23 -10 50 -19 60 -19
25 0 21 25 -7 43 -56 37 -146 230 -146 313 0 37 -3 45 -16 42 -25 -5 -54 -67
-54 -115 0 -23 9 -66 20 -94 31 -78 12 -83 -53 -14 -52 54 -56 56 -66 37 -6
-12 -11 -31 -11 -43 0 -12 -19 -63 -42 -113 -43 -91 -43 -91 -42 -206 0 -92 4
-125 21 -165 27 -67 38 -131 23 -140 -20 -13 -49 28 -59 82 -24 123 -144 276
-176 223 -7 -12 14 -54 54 -104 38 -48 55 -107 44 -153 l-8 -35 -77 80 c-141
148 -169 205 -188 392 -6 58 -16 123 -22 145 -5 22 -12 151 -15 286 l-5 246
46 91 c51 97 121 202 137 202 12 0 14 5 -30 -118 -22 -60 -41 -122 -43 -138
-6 -56 17 -35 44 41 49 136 144 296 161 268 2 -4 -6 -60 -19 -123 -28 -137
-29 -160 -9 -160 30 0 62 46 94 135 26 72 31 99 27 136 -10 75 -35 160 -56
189 -24 34 -26 70 -4 70 8 0 24 -20 35 -46 20 -45 21 -45 41 -27 l21 18 -6
-75 c-6 -74 3 -121 17 -85 3 9 6 36 6 59 0 45 24 94 33 66 3 -8 8 -51 11 -94
5 -82 19 -112 49 -100 46 17 49 166 4 226 l-27 35 82 -1 c68 -1 83 2 83 14 0
8 -15 19 -33 25 -82 24 11 56 184 62 111 5 136 3 168 -12 70 -33 59 15 -12 51
-22 12 -51 24 -64 28 l-23 7 23 9 c55 23 298 37 337 20z m-795 -195 c0 -8 -7
-15 -15 -15 -8 0 -15 7 -15 15 0 8 7 15 15 15 8 0 15 -7 15 -15z m5410 -876
c0 -17 -248 -259 -360 -350 -345 -282 -582 -416 -965 -546 -221 -75 -687 -201
-883 -238 -324 -62 -531 -125 -772 -235 -195 -88 -434 -214 -509 -268 -78 -55
-291 -259 -291 -278 0 -7 -11 -21 -24 -29 -13 -9 -51 -64 -84 -123 -33 -59
-78 -138 -100 -177 -23 -38 -44 -83 -48 -99 l-7 -28 28 18 28 18 -7 -39 c-23
-135 -36 -237 -36 -285 0 -52 -12 -91 -25 -79 -3 4 -19 71 -35 150 -46 225
-130 471 -203 594 -16 28 -29 62 -29 77 2 97 235 372 415 492 108 72 203 112
415 177 91 28 247 80 346 115 100 36 251 90 336 121 85 30 217 81 292 114 76
33 164 69 195 81 32 12 85 36 118 54 33 18 85 42 115 55 30 12 161 83 290 156
235 133 297 178 490 352 75 67 65 65 330 81 236 15 358 29 495 55 66 13 179
31 250 40 72 9 146 20 165 25 50 12 70 11 70 -1z m112 -51 c9 -7 38 -40 64
-73 26 -33 85 -102 131 -154 46 -52 100 -117 119 -145 19 -28 51 -70 70 -94
19 -24 34 -47 34 -52 0 -12 -390 -290 -500 -356 -49 -30 -177 -94 -284 -144
-182 -83 -336 -157 -345 -166 -2 -2 -2 -6 1 -9 3 -3 92 36 199 86 107 50 228
105 269 122 41 17 89 41 107 54 17 13 39 23 49 23 10 0 42 14 73 31 77 44 369
245 409 283 39 37 62 29 74 -26 11 -52 60 -170 113 -273 150 -288 275 -508
323 -568 65 -80 201 -210 289 -275 34 -25 60 -49 57 -53 -7 -12 -350 -140
-427 -160 -22 -5 -58 -19 -80 -31 -23 -11 -95 -41 -160 -64 -160 -59 -213 -87
-201 -105 3 -5 18 -2 34 6 49 26 387 154 569 216 95 33 191 69 213 80 67 34
104 27 204 -42 39 -27 213 -109 264 -124 38 -12 121 -55 156 -81 16 -13 56
-35 87 -49 31 -13 57 -29 57 -34 0 -10 -58 -31 -157 -56 -102 -25 -539 -123
-673 -151 -69 -14 -197 -43 -284 -65 -235 -59 -679 -151 -1151 -239 -591 -110
-1369 -266 -1625 -325 -80 -19 -201 -43 -270 -55 -285 -47 -518 -95 -745 -152
-298 -75 -405 -108 -475 -150 -46 -28 -60 -44 -88 -98 -39 -77 -52 -159 -29
-178 12 -10 20 -8 45 13 36 30 48 31 62 6 8 -16 1 -27 -44 -68 -59 -55 -187
-123 -229 -123 -34 0 -34 9 3 55 33 41 38 65 15 65 -16 0 -90 -71 -156 -148
-34 -40 -79 -57 -79 -30 0 16 65 142 101 196 33 49 36 70 12 79 -30 12 -82
-56 -178 -231 l-50 -91 -56 -9 c-43 -7 -86 -4 -185 12 -71 11 -158 24 -194 28
-36 3 -85 13 -110 21 -25 9 -108 19 -185 22 -136 7 -142 9 -225 48 -47 22 -93
49 -104 61 -18 21 -18 22 8 31 30 12 32 29 12 114 -16 68 -31 86 -107 132
-125 77 -350 150 -547 180 -150 23 -284 53 -350 80 -57 23 -457 107 -692 144
-338 55 -1097 141 -1500 171 -151 12 -417 37 -590 56 -173 19 -477 50 -675 69
-339 33 -655 69 -718 81 -35 7 -32 12 83 109 129 109 242 190 375 267 66 39
183 108 260 153 77 46 156 90 175 98 34 14 115 73 224 165 28 23 74 58 103 77
28 19 61 48 73 65 32 45 82 55 220 41 121 -12 477 -68 768 -121 95 -17 234
-40 310 -50 75 -11 171 -26 214 -34 42 -8 123 -20 180 -26 280 -30 690 -131
930 -228 129 -52 208 -73 208 -55 0 6 -24 21 -53 33 -89 39 -426 150 -547 180
-63 16 -153 41 -199 55 -106 31 -189 47 -481 90 -206 31 -407 64 -815 135
-185 32 -385 59 -492 66 -57 4 -103 10 -103 14 0 13 98 98 308 268 111 89 236
199 279 243 43 45 91 90 106 101 l28 20 77 -40 c92 -47 573 -210 640 -217 26
-3 94 -16 152 -29 173 -41 512 -104 715 -132 105 -15 213 -33 240 -40 28 -8
111 -27 185 -43 139 -31 347 -89 505 -142 245 -84 524 -237 685 -378 142 -124
348 -329 398 -395 132 -176 261 -486 308 -741 7 -38 18 -207 24 -375 11 -330
15 -369 34 -350 8 8 11 159 12 553 0 583 -2 553 60 892 29 166 44 215 94 315
86 171 240 346 433 493 126 96 203 145 362 228 145 76 211 100 423 153 97 25
215 56 261 70 47 15 139 37 205 51 67 14 164 39 216 54 52 16 212 59 355 96
267 69 398 113 495 166 30 17 96 46 145 65 50 19 117 50 150 68 100 55 284
178 383 257 52 41 119 93 150 117 31 23 82 67 112 96 30 30 69 61 86 69 17 9
43 33 59 54 33 45 97 113 105 113 3 0 13 -6 22 -12z m-7709 -364 c18 -9 43
-28 57 -42 37 -37 253 -177 305 -198 32 -13 44 -24 41 -34 -18 -57 -18 -59 8
-83 36 -34 108 -51 152 -37 29 10 48 6 154 -29 66 -22 167 -63 224 -91 61 -30
142 -60 193 -72 207 -48 667 -184 948 -280 147 -50 350 -140 379 -168 12 -11
27 -20 32 -20 28 0 449 -251 525 -314 62 -51 183 -188 236 -266 37 -55 94
-198 145 -359 47 -153 92 -351 79 -351 -3 0 -30 40 -58 89 -129 221 -384 503
-600 665 -204 153 -482 316 -539 316 -14 0 -37 6 -52 14 -24 12 -152 52 -342
108 -36 10 -135 34 -220 53 -85 20 -180 42 -210 50 -30 8 -167 33 -305 55
-350 57 -650 116 -785 155 -112 33 -661 214 -669 221 -2 2 21 61 51 131 31 71
79 192 107 270 66 183 88 233 101 233 6 0 25 -7 43 -16z m-200 -198 c7 -18 -4
-60 -31 -112 -22 -43 -58 -81 -50 -54 7 29 40 135 49 158 10 25 24 29 32 8z
m874 -19 c21 -18 53 -44 71 -56 43 -30 95 -102 83 -114 -5 -5 -26 -4 -51 3
-42 11 -76 40 -113 94 l-18 27 -29 -25 c-36 -30 -114 -60 -135 -53 -27 11 -16
34 43 96 69 73 93 77 149 28z m-967 -33 c0 -3 -29 -75 -64 -159 -55 -130 -72
-161 -113 -202 -26 -26 -81 -85 -122 -131 -71 -81 -384 -356 -608 -536 -59
-48 -137 -101 -173 -118 -36 -16 -144 -85 -240 -153 -288 -201 -609 -409 -709
-459 -51 -26 -91 -43 -90 -38 2 6 76 78 163 161 176 167 336 336 336 356 0 18
86 95 106 95 17 0 25 4 236 138 75 48 164 104 197 125 59 37 301 249 476 417
50 48 111 101 135 119 24 17 111 95 194 172 165 156 241 219 262 219 8 0 14
-3 14 -6z m4542 -124 c13 -38 35 -50 92 -50 32 0 64 -10 113 -36 37 -20 97
-46 132 -58 36 -11 66 -26 69 -33 2 -7 -14 -21 -35 -31 -54 -28 -501 -167
-509 -159 -4 4 9 42 30 85 36 78 65 188 66 249 0 65 24 84 42 33z m-2186 -217
c72 -94 144 -201 144 -215 0 -4 -8 -8 -18 -8 -26 0 -242 225 -242 252 0 21 26
58 41 58 4 0 38 -39 75 -87z m1154 -711 c39 -5 56 -12 58 -23 4 -23 -56 -119
-74 -119 -14 0 -174 147 -174 160 0 6 26 4 190 -18z m6651 -582 c24 -13 25
-52 2 -72 -10 -9 -47 -25 -83 -36 -115 -35 -669 -169 -895 -217 -121 -25 -364
-79 -540 -120 -176 -41 -367 -83 -425 -94 -360 -70 -488 -94 -685 -126 -265
-44 -438 -76 -605 -115 -69 -16 -204 -43 -300 -60 -96 -17 -272 -50 -390 -75
-118 -24 -257 -51 -309 -60 -84 -14 -202 -44 -361 -89 -30 -9 -206 -50 -390
-91 -219 -49 -344 -81 -360 -94 -28 -20 -29 -41 -9 -107 13 -42 12 -42 -32
-95 -55 -66 -202 -195 -250 -219 -76 -39 -548 -140 -743 -159 -168 -17 -481
-14 -563 4 -161 37 -333 112 -471 208 -96 66 -123 102 -125 164 l-2 48 40 5
c30 4 40 9 39 23 -4 79 13 68 -177 116 -551 140 -890 194 -1962 311 -154 17
-467 53 -695 81 -228 27 -509 61 -625 75 -367 44 -514 63 -740 99 -389 62
-494 75 -583 75 -94 0 -285 22 -367 43 -52 12 -67 34 -46 67 10 15 154 7 631
-35 91 -8 251 -22 355 -30 105 -9 296 -24 425 -35 129 -11 344 -33 478 -50
134 -17 399 -48 590 -70 1287 -144 1602 -187 1892 -255 80 -19 194 -43 253
-55 60 -11 192 -45 295 -76 157 -46 191 -59 212 -83 14 -16 39 -31 55 -34 27
-5 136 -64 158 -86 6 -6 -7 -35 -32 -75 -22 -36 -41 -74 -41 -85 0 -25 96
-112 156 -140 154 -73 406 -137 594 -152 264 -21 425 2 737 103 84 27 183 62
219 78 36 17 71 30 78 30 17 0 80 68 100 107 22 45 20 64 -15 149 l-31 75 27
29 c32 34 78 57 150 77 263 71 884 205 1152 248 207 33 357 62 643 124 129 28
321 70 425 92 105 23 215 48 245 56 30 8 114 26 185 39 72 14 211 43 310 66
99 22 302 64 450 93 295 59 514 107 559 124 43 17 759 170 936 201 36 6 133
26 215 45 83 19 159 36 170 38 36 8 56 7 76 -3z m-4641 -1254 c5 -13 14 -51
21 -84 12 -57 11 -67 -19 -174 -18 -62 -49 -198 -71 -303 -47 -235 -97 -416
-125 -458 -35 -52 -67 -62 -196 -62 -201 1 -373 65 -472 178 -32 36 -62 77
-68 92 -12 30 -14 175 -2 175 4 0 18 -9 32 -20 28 -22 60 -26 78 -8 21 21 14
35 -48 101 -33 36 -60 69 -60 75 0 5 14 15 31 21 24 8 37 7 59 -4 16 -8 55
-16 87 -17 56 -3 58 -2 55 21 -1 14 -14 39 -27 57 -14 18 -25 38 -25 44 0 7
23 37 51 68 27 32 67 91 87 132 35 71 40 77 101 107 55 27 179 64 261 76 14 3
73 5 133 6 105 1 108 0 117 -23z m-3280 -47 c134 -31 322 -131 303 -162 -3 -5
-33 -7 -66 -5 -39 2 -62 -1 -64 -9 -6 -18 46 -61 115 -94 35 -16 98 -54 140
-83 43 -29 94 -61 115 -71 20 -9 37 -24 37 -33 0 -8 -22 -57 -50 -108 -27 -51
-50 -100 -50 -109 0 -49 77 -10 110 56 11 21 27 39 34 39 30 0 39 -32 47 -163
4 -73 10 -152 14 -177 6 -40 3 -51 -26 -93 -61 -92 -126 -155 -184 -176 -73
-27 -209 -44 -319 -39 -83 4 -98 8 -166 43 -143 76 -193 156 -206 335 -6 67
-14 90 -75 215 -48 97 -77 172 -95 244 -26 104 -26 105 -10 188 31 157 41 175
116 200 44 14 220 16 280 2z m2200 -518 c0 -5 -7 -17 -16 -25 -17 -18 -158
-23 -169 -7 -6 11 102 39 153 40 17 1 32 -3 32 -8z m-1462 -12 c-2 -6 -8 -10
-13 -10 -5 0 -11 4 -13 10 -2 6 4 11 13 11 9 0 15 -5 13 -11z m212 -70 c189
-26 519 -34 940 -21 179 6 329 6 333 2 13 -12 19 -123 8 -140 -13 -19 -476
-34 -831 -26 -262 6 -639 32 -654 46 -5 5 -11 43 -14 84 l-5 76 39 0 c22 0
104 -10 184 -21z m395 -280 c128 -8 281 -9 425 -4 275 9 278 9 418 -2 61 -5
117 -14 124 -21 8 -8 8 -21 2 -44 l-10 -33 -209 -6 c-116 -3 -450 -7 -742 -8
l-533 -1 -30 60 c-16 33 -30 62 -30 64 0 16 253 14 585 -5z m1179 -171 c28
-18 58 -41 68 -50 27 -27 85 -39 217 -45 l124 -6 -6 -51 c-7 -65 -55 -211
-147 -445 -57 -145 -81 -193 -112 -227 -49 -54 -99 -78 -140 -69 -46 10 -121
91 -142 150 -19 58 -41 428 -30 535 7 74 32 197 46 223 14 27 65 21 122 -15z
m-1164 -6 c0 -21 -30 -221 -35 -234 -8 -20 -124 -28 -382 -28 -234 0 -233 -1
-233 109 0 67 1 69 40 105 24 21 51 36 68 37 15 1 86 5 157 8 192 11 385 12
385 3z m778 -9 l142 -6 0 -124 0 -123 -456 0 -456 0 6 28 c3 15 8 54 11 87 4
33 11 77 16 97 l10 37 117 4 c251 6 473 7 610 0z m929 -573 c1 -291 -2 -532
-6 -535 -16 -9 -39 30 -54 90 -33 131 -67 415 -67 557 0 80 5 110 25 164 14
37 32 94 41 128 19 74 40 126 51 126 4 0 9 -238 10 -530z m-3217 438 c11 -18
22 -53 26 -78 3 -25 26 -89 51 -142 43 -94 44 -99 34 -150 -13 -71 -18 -112
-36 -313 -9 -93 -22 -224 -30 -290 -8 -66 -15 -125 -15 -132 0 -18 -39 -36
-65 -29 -36 9 -47 57 -52 221 -5 149 12 777 24 888 5 47 9 57 25 57 10 0 27
-14 38 -32z m784 -35 c4 -10 10 -180 13 -378 l6 -360 -52 -48 c-61 -57 -132
-92 -168 -82 -37 9 -130 70 -147 97 -8 13 -29 72 -46 133 -36 125 -51 158
-115 248 -46 66 -124 252 -111 265 4 4 96 9 204 12 220 6 237 10 345 91 59 44
62 45 71 22z m1650 -165 c3 -18 2 -36 -4 -42 -20 -20 -1527 -37 -1558 -18 -19
12 -4 42 27 54 15 5 243 14 541 19 283 5 553 10 600 12 47 2 153 4 236 5 l152
2 6 -32z m144 -583 c50 -20 79 -25 152 -25 69 0 92 -3 96 -14 3 -8 -6 -53 -20
-99 -28 -91 -32 -132 -15 -142 21 -14 30 -63 44 -239 19 -231 24 -263 46 -307
20 -39 59 -185 59 -219 0 -15 -11 -25 -37 -36 -21 -8 -48 -20 -60 -26 -24 -12
-55 -8 -178 19 -76 17 -81 20 -117 68 -110 145 -108 141 -124 292 -20 189 -35
240 -92 308 -24 29 -24 33 -18 132 9 121 18 158 48 190 28 30 38 29 38 -4 0
-43 11 -73 26 -73 21 0 51 55 59 108 7 44 21 92 28 92 2 0 31 -11 65 -25z
m-1713 -123 c12 -66 42 -102 85 -102 l31 0 -6 -62 c-11 -108 -23 -154 -69
-256 -24 -54 -59 -145 -76 -203 -18 -57 -46 -125 -62 -151 -42 -67 -155 -171
-203 -186 -59 -19 -222 -27 -273 -13 -65 18 -72 44 -35 123 17 35 48 83 70
108 56 65 79 128 87 240 9 147 27 209 71 246 l37 30 -27 39 c-18 28 -25 49
-23 75 l3 35 82 7 c89 7 166 40 234 98 47 41 62 35 74 -28z"/>
<path d="M6129 7876 c-18 -39 12 -83 78 -113 78 -36 91 -19 31 45 -25 26 -51
58 -57 70 -15 29 -39 28 -52 -2z"/>
<path d="M5642 7713 c-28 -73 -42 -173 -24 -173 23 0 78 154 65 185 -9 24 -30
17 -41 -12z"/>
<path d="M5524 7641 c-65 -40 -133 -147 -160 -251 -9 -34 -17 -109 -17 -166
-2 -85 1 -106 15 -120 16 -17 18 -16 28 10 5 15 10 45 10 68 0 102 58 307 96
339 22 18 25 7 13 -55 -13 -61 -8 -76 19 -60 27 17 53 102 55 178 2 80 -7 89
-59 57z"/>
<path d="M6301 7250 c-46 -16 -93 -38 -104 -48 -19 -20 -19 -20 3 -42 15 -15
29 -20 48 -16 15 3 74 10 133 15 58 6 113 13 122 17 27 10 20 39 -18 73 -45
39 -75 39 -184 1z"/>
<path d="M5699 7009 c-30 -22 -78 -54 -106 -70 -41 -24 -53 -36 -53 -55 0 -37
27 -41 84 -12 28 14 63 31 79 37 46 18 89 116 58 135 -4 3 -32 -13 -62 -35z"/>
<path d="M6495 6905 c-41 -15 -95 -65 -95 -89 0 -24 26 -25 84 -1 76 31 104
37 111 25 11 -18 -16 -40 -49 -40 -64 0 -75 -49 -22 -104 41 -44 70 -46 116
-7 33 27 35 33 35 88 -1 77 -19 119 -57 132 -41 14 -74 13 -123 -4z"/>
<path d="M5712 6579 c-59 -10 -99 -28 -124 -56 -25 -27 -48 -87 -48 -123 0
-27 2 -30 19 -20 11 5 34 30 52 55 38 52 85 85 122 85 24 0 22 -4 -29 -55 -30
-31 -54 -60 -54 -65 0 -17 82 -70 108 -70 14 0 38 14 59 35 32 32 34 38 28 77
-4 25 -2 56 5 73 10 27 9 32 -15 52 -28 25 -40 26 -123 12z"/>
<path d="M6366 6414 c-31 -30 -13 -99 21 -78 28 18 56 61 50 78 -8 21 -51 21
-71 0z"/>
<path d="M6188 6363 c-32 -35 -51 -71 -43 -83 11 -18 56 -10 80 15 29 28 32
57 9 79 -19 20 -16 21 -46 -11z"/>
<path d="M6523 6270 c-23 -10 -68 -36 -101 -58 -32 -22 -77 -45 -100 -51 -43
-12 -203 -113 -235 -149 -24 -27 -14 -60 20 -68 22 -6 32 0 71 45 54 63 114
105 169 120 22 6 58 23 79 38 22 14 53 36 71 48 22 15 53 24 104 28 75 6 107
23 96 51 -9 24 -120 21 -174 -4z"/>
<path d="M6423 6070 c-18 -10 -40 -31 -49 -45 -16 -24 -16 -28 -1 -42 14 -14
18 -14 45 6 27 19 72 78 72 95 0 12 -36 5 -67 -14z"/>
<path d="M8075 6475 c-75 -18 -415 -114 -455 -129 -19 -6 -35 -16 -35 -21 0
-19 54 -16 127 5 141 41 438 142 444 151 7 12 -19 10 -81 -6z"/>
<path d="M8075 6389 c-260 -77 -353 -108 -361 -121 -11 -18 72 2 307 73 236
71 279 87 279 101 0 13 -16 10 -225 -53z"/>
<path d="M8265 6365 c-82 -24 -174 -49 -202 -55 -50 -11 -72 -24 -59 -37 14
-15 456 109 456 128 0 16 -44 8 -195 -36z"/>
<path d="M9665 6084 c-88 -41 -205 -96 -260 -121 -106 -48 -155 -81 -102 -69
22 5 347 151 463 207 29 15 81 58 69 58 -5 0 -82 -33 -170 -75z"/>
<path d="M6758 4910 c-61 -90 -164 -380 -179 -504 -5 -44 -18 -139 -29 -211
-40 -266 -50 -495 -20 -420 5 11 9 41 9 67 1 26 21 127 45 225 24 98 49 223
56 278 23 193 54 326 106 458 20 48 34 98 32 110 -3 22 -3 22 -20 -3z"/>
<path d="M6851 4353 c-68 -79 -149 -257 -181 -397 -6 -28 -29 -97 -52 -155
-62 -163 -109 -303 -104 -309 3 -2 10 6 15 19 89 232 366 839 390 853 18 12
13 36 -8 36 -11 0 -38 -21 -60 -47z m-73 -205 c-2 -13 -11 -24 -21 -26 -15 -3
-16 0 -6 22 15 32 32 34 27 4z"/>
<path d="M6030 3871 c0 -13 63 -124 93 -163 30 -41 62 -103 71 -142 16 -64
106 -117 106 -62 0 57 -188 352 -236 370 -22 9 -34 7 -34 -3z"/>
<path d="M5702 3779 c3 -8 42 -39 87 -69 45 -31 116 -86 157 -123 66 -58 78
-66 96 -56 20 11 19 11 -8 41 -88 92 -348 254 -332 207z"/>
<path d="M4130 6270 c0 -11 6 -12 280 -80 204 -50 260 -58 260 -41 0 13 -90
46 -165 61 -33 7 -114 25 -180 41 -121 29 -195 37 -195 19z"/>
<path d="M4060 6194 c0 -12 85 -38 274 -83 253 -61 290 -67 284 -50 -5 16 -61
35 -173 59 -49 11 -142 33 -205 50 -106 28 -180 38 -180 24z"/>
<path d="M4030 6106 c0 -18 29 -28 199 -66 143 -32 241 -47 241 -36 0 14 -61
30 -417 111 -16 4 -23 1 -23 -9z"/>
<path d="M7220 3590 c-8 -5 -11 -12 -8 -16 10 -9 38 3 38 16 0 12 -10 13 -30
0z"/>
<path d="M2551 2831 c-74 -5 -82 -8 -67 -20 13 -11 71 -16 229 -22 117 -5 247
-13 290 -19 82 -12 391 0 528 20 52 8 73 7 95 -4 40 -19 878 -34 889 -16 18
29 -20 40 -180 50 -183 12 -1657 21 -1784 11z"/>
<path d="M8495 2780 c-392 -10 -497 -21 -471 -47 4 -4 356 -10 781 -13 497 -3
777 -9 783 -15 4 -5 39 -111 77 -235 37 -124 121 -394 187 -600 202 -636 274
-874 357 -1178 45 -161 85 -301 90 -310 5 -9 16 -57 26 -107 22 -121 44 -188
71 -222 20 -24 25 -26 34 -13 13 19 5 84 -21 158 -11 31 -49 161 -85 287 -168
590 -375 1269 -523 1715 -99 295 -151 464 -151 484 0 17 26 18 768 15 880 -3
939 0 916 50 -9 20 -19 20 -699 25 -379 3 -953 7 -1275 10 -322 2 -711 1 -865
-4z"/>
<path d="M2821 2723 c-21 -14 -387 -498 -585 -773 -116 -162 -396 -584 -419
-633 -17 -36 -16 -57 3 -57 5 0 19 18 30 40 12 23 44 74 73 115 29 41 67 98
85 127 49 80 119 180 142 203 11 12 39 51 62 87 59 91 449 609 516 683 66 74
132 171 132 196 0 26 -14 30 -39 12z"/>
<path d="M3942 2683 c-17 -27 -83 -146 -147 -267 -104 -194 -189 -345 -412
-731 -114 -196 -488 -964 -600 -1232 -15 -35 -23 -66 -19 -70 12 -13 42 31 73
107 91 222 434 913 540 1087 34 57 84 143 109 191 26 48 71 123 99 167 91 140
405 746 405 782 0 25 -18 13 -48 -34z"/>
<path d="M10896 2621 c-3 -4 11 -35 30 -67 20 -32 53 -94 75 -136 40 -81 180
-410 207 -488 8 -25 19 -53 24 -64 6 -10 25 -64 43 -120 60 -185 141 -363 255
-561 32 -55 76 -136 98 -181 44 -88 66 -114 83 -97 15 15 -15 81 -78 174 -123
183 -243 432 -273 569 -36 163 -51 212 -74 242 -13 18 -52 103 -86 188 -34 85
-99 232 -145 325 -93 189 -138 250 -159 216z"/>
<path d="M8346 2582 c-3 -5 1 -36 9 -69 12 -53 170 -617 225 -804 11 -36 26
-97 34 -135 8 -38 62 -253 121 -479 58 -226 135 -540 170 -700 72 -318 82
-355 97 -355 15 0 6 51 -67 395 -188 884 -327 1441 -472 1895 -67 211 -99 280
-117 252z"/>
<path d="M4642 1338 c-5 -7 -24 -58 -42 -113 -40 -127 -165 -502 -268 -806
-96 -281 -128 -397 -113 -412 21 -21 40 18 96 207 31 104 71 228 90 275 40
104 85 250 85 277 0 11 4 24 9 30 24 23 171 483 171 533 0 24 -12 27 -28 9z"/>
</g>
</svg>
